<svg id="レイヤー_1" data-name="レイヤー 1" xmlns="http://www.w3.org/2000/svg" viewBox="0 0 400 79.79"><defs><style>.cls-1{fill:#1976d2;}.cls-2{fill:#333;}</style></defs><path class="cls-1" d="M69.65,16.58a5.71,5.71,0,0,0-7.76.57L39.58,43l-7.25-7.12a5.71,5.71,0,0,0-8.07,8.09l11.4,11.4A5.76,5.76,0,0,0,39.71,57h0a5.67,5.67,0,0,0,4.1-1.94L70.51,24.6A5.72,5.72,0,0,0,69.65,16.58Z"/><path class="cls-2" d="M73.89,34.2a5.7,5.7,0,0,0-5.7,5.7A28.48,28.48,0,1,1,39.6,11.4h.09a31.48,31.48,0,0,1,6.67.75A5.7,5.7,0,0,0,49.72,1.26a3.83,3.83,0,0,0-.58-.14A41.6,41.6,0,0,0,39.69,0,39.9,39.9,0,0,0,11.76,68.18,39.37,39.37,0,0,0,39.7,79.79,39.93,39.93,0,0,0,79.59,39.9,5.7,5.7,0,0,0,73.89,34.2Z"/><path class="cls-2" d="M113.55,36.14a5.26,5.26,0,0,0-4,1.69A6.74,6.74,0,0,0,108,42.6V53.82c0,5.33-.39,7.42-.71,8.22a7.07,7.07,0,0,1-2.66,3.2c-2.45,1.63-5.51,1.56-7,.23a5.54,5.54,0,0,1-1.65-2.94,21.94,21.94,0,0,1-.51-5.16V42.6a6.79,6.79,0,0,0-1.54-4.77,5.31,5.31,0,0,0-4.08-1.69,5.18,5.18,0,0,0-4,1.67,6.88,6.88,0,0,0-1.5,4.79V60.89c0,3.83.62,6.83,1.85,8.94A11.17,11.17,0,0,0,90.61,74a13.8,13.8,0,0,0,6.44,1.5,17.18,17.18,0,0,0,5.22-.74,13.74,13.74,0,0,0,4.29-2.27,20.08,20.08,0,0,0,2-1.83,5.81,5.81,0,0,0,1.4,3.22,5.22,5.22,0,0,0,7.62.06,6.61,6.61,0,0,0,1.45-4.6V42.6a6.88,6.88,0,0,0-1.5-4.79A5.21,5.21,0,0,0,113.55,36.14Z"/><path class="cls-2" d="M128.07,24.33a5.11,5.11,0,0,0-1.71,3.93,5.12,5.12,0,0,0,1.7,4.07A5.83,5.83,0,0,0,132,33.74a5.61,5.61,0,0,0,3.85-1.44,5.17,5.17,0,0,0,1.67-4,5.07,5.07,0,0,0-1.73-4.08A5.88,5.88,0,0,0,128.07,24.33Z"/><path class="cls-2" d="M131.87,36.14a5.22,5.22,0,0,0-4,1.69,6.89,6.89,0,0,0-1.51,4.77V69a7,7,0,0,0,1.5,4.78,5.07,5.07,0,0,0,4,1.78,5.27,5.27,0,0,0,4-1.72A6.85,6.85,0,0,0,137.49,69V42.33a6.29,6.29,0,0,0-1.58-4.51A5.34,5.34,0,0,0,131.87,36.14Z"/><path class="cls-2" d="M172.34,65.62h-16l15.48-17.31c.63-.68,1.17-1.26,1.6-1.75s.81-1,1.06-1.3a6.08,6.08,0,0,0,.8-1.53,5.07,5.07,0,0,0,.37-1.88,4.11,4.11,0,0,0-2.06-3.92,10.33,10.33,0,0,0-5-1h-21.2a5.59,5.59,0,0,0-3.75,1.17,4.12,4.12,0,0,0-1.43,3.26c0,2.35,1.14,3.24,2.09,3.57a14.49,14.49,0,0,0,4.61.56h11.81c-.32.4-.67.82-1.06,1.28q-1.39,1.64-3.51,4t-4.61,5.12l-5.54,6.13c-1.95,2.18-3.21,3.64-3.83,4.47a4.83,4.83,0,0,0-1.11,3,4.91,4.91,0,0,0,1.62,3.85,6.73,6.73,0,0,0,4.57,1.39h25a5.79,5.79,0,0,0,4-1.22,4.18,4.18,0,0,0,1.42-3.25,4.4,4.4,0,0,0-1.42-3.35A5.66,5.66,0,0,0,172.34,65.62Z"/><path class="cls-2" d="M239.05,16.72a9.79,9.79,0,0,0-5.51-1.36h-3.76a14.26,14.26,0,0,0-4.91.61,4.14,4.14,0,0,0-2.27,2.2,33.49,33.49,0,0,0-1.67,5.19l-8.7,32.77-8.69-32.77a34.63,34.63,0,0,0-1.67-5.19A4.14,4.14,0,0,0,199.6,16a14.29,14.29,0,0,0-4.92-.61h-3.75a9.77,9.77,0,0,0-5.51,1.36q-2,1.38-2,5.29V69.36c0,2.31.51,4,1.55,5.16a5.63,5.63,0,0,0,8.06,0,7.52,7.52,0,0,0,1.53-5.14V28.05l9.59,38.12c.33,1.25.65,2.46,1,3.61A13,13,0,0,0,206.36,73a6.45,6.45,0,0,0,5.87,3.26,6.33,6.33,0,0,0,4.41-1.43,7.55,7.55,0,0,0,2.19-3.16q.58-1.73,1.53-5.45L230,28.05V69.36a7.42,7.42,0,0,0,1.55,5.14,5.1,5.1,0,0,0,4,1.71,5.23,5.23,0,0,0,4.1-1.71,7.52,7.52,0,0,0,1.53-5.14V22Q241.09,18.1,239.05,16.72Z"/><path class="cls-2" d="M284.44,61.81l.05-5c0-1.51,0-3.35,0-5.52A20.9,20.9,0,0,0,283,42.61a9.8,9.8,0,0,0-5.42-5,26.77,26.77,0,0,0-9.93-1.51,25.14,25.14,0,0,0-9.45,1.56,13.3,13.3,0,0,0-5.78,4.09A8.79,8.79,0,0,0,250.49,47a4.19,4.19,0,0,0,1.45,3.26,4.9,4.9,0,0,0,3.32,1.24,3.72,3.72,0,0,0,3-1,32.41,32.41,0,0,0,1.86-2.69,7.88,7.88,0,0,1,2.71-2.63,10.46,10.46,0,0,1,4.83-.86c2.37,0,4,.46,4.64,1.33a8,8,0,0,1,1.23,4.09c-1.65.46-3.19.87-4.61,1.21-1.66.39-3.63.83-5.94,1.29s-3.8.79-4.38.92a13,13,0,0,0-7.09,3.88,10.26,10.26,0,0,0-2.65,7.09,10.8,10.8,0,0,0,1.59,5.7,11.22,11.22,0,0,0,4.52,4.15,14.17,14.17,0,0,0,6.67,1.51A19.14,19.14,0,0,0,269,74.19a29,29,0,0,0,5.87-3.4A18.43,18.43,0,0,0,277.39,74a5,5,0,0,0,3.46,1.6,5.45,5.45,0,0,0,3.66-1.4,4.34,4.34,0,0,0,1.65-3.3,15,15,0,0,0-.9-3.91A17.46,17.46,0,0,1,284.44,61.81Zm-10.89-4.44h0c0,3-.38,5.17-1.13,6.43a7.18,7.18,0,0,1-3,2.72,9.89,9.89,0,0,1-4.62,1.09,4.93,4.93,0,0,1-3.51-1.21A3.76,3.76,0,0,1,260,63.52a3,3,0,0,1,1-2.43,6.48,6.48,0,0,1,2.48-1.33c1-.25,2.75-.66,5.31-1.21C270.68,58.15,272.28,57.75,273.55,57.37Z"/><path class="cls-2" d="M324.19,65.22,315.14,51l4.32-3.95c2.77-2.5,4.06-4.45,4.06-6.12a4.56,4.56,0,0,0-1.44-3.44,4.89,4.89,0,0,0-3.53-1.36,5,5,0,0,0-3,.92A26.62,26.62,0,0,0,312.45,40l-8.74,9.17v-20a7.33,7.33,0,0,0-1.48-4.91,5.15,5.15,0,0,0-4.1-1.79,4.88,4.88,0,0,0-4.15,2,8.66,8.66,0,0,0-1.37,5.25V69a7.18,7.18,0,0,0,1.45,4.81,5.12,5.12,0,0,0,4.07,1.75,5.28,5.28,0,0,0,3.9-1.72,6.56,6.56,0,0,0,1.68-4.77V62.14l3.85-3.64,7.54,12.38v0a22.53,22.53,0,0,0,2.6,3.47A4.44,4.44,0,0,0,321,75.56,5.11,5.11,0,0,0,324.84,74a5.8,5.8,0,0,0,1.45-4.12,4.46,4.46,0,0,0-.56-2.09C325.41,67.21,324.9,66.34,324.19,65.22Z"/><path class="cls-2" d="M364.43,57.93c1.66-.87,2.5-2.67,2.5-5.36a16.41,16.41,0,0,0-2-7.81,16,16,0,0,0-6.15-6.28A19,19,0,0,0,349,36.07a21.67,21.67,0,0,0-7.92,1.4,16.52,16.52,0,0,0-6.1,4.07,17.9,17.9,0,0,0-3.75,6.34,23.88,23.88,0,0,0-1.27,7.9c0,6,1.75,10.88,5.2,14.42s8.35,5.36,14.51,5.36a22.42,22.42,0,0,0,7.19-1.06,18,18,0,0,0,5.25-2.7,12.67,12.67,0,0,0,3.19-3.49,6.8,6.8,0,0,0,1.11-3.4A3.73,3.73,0,0,0,365.2,62a4.67,4.67,0,0,0-5.62-.15c-1.14,1.08-2.06,1.93-2.77,2.55a19.55,19.55,0,0,1-2.26,1.69,8.91,8.91,0,0,1-2.4,1.1,9,9,0,0,1-6.79-.73,7.62,7.62,0,0,1-2.92-3.23,10.8,10.8,0,0,1-1.13-4.16h17.07A13.2,13.2,0,0,0,364.43,57.93Zm-23-6a10.16,10.16,0,0,1,2.3-5.45,6.44,6.44,0,0,1,5-2.08,6.71,6.71,0,0,1,5.15,2A9.6,9.6,0,0,1,356,51.92Z"/><path class="cls-2" d="M396.75,37.7c-4-2.11-8.72-2.08-11.34.11a14,14,0,0,0-2.18,2.36,6.69,6.69,0,0,0-1-2.18,4.66,4.66,0,0,0-4.09-1.85c-2.49,0-5.45,1.24-5.45,7.17V69a7,7,0,0,0,1.53,4.83,5.16,5.16,0,0,0,4,1.73,5.32,5.32,0,0,0,4-1.7A6.83,6.83,0,0,0,383.87,69V61.29c0-2.74.09-5.08.27-7a21,21,0,0,1,.93-4.77,5.93,5.93,0,0,1,1.7-2.73c1.23-1,3.1-1.15,5.85-.27a10.25,10.25,0,0,0,2.74.67A4.82,4.82,0,0,0,400,42.39C400,40.42,398.91,38.84,396.75,37.7Z"/></svg>